<svg xmlns="http://www.w3.org/2000/svg" width="40" height="40" viewBox="0 0 40 40"><path fill="#fff" d="M21.193 22.063c-.693-.482-2.015-1.658-2.015-2.349 0-.811.233-1.208 1.469-2.162 1.269-.977 2.166-2.348 2.166-3.944 0-1.899-.859-3.751-2.471-4.363h2.43l1.715-1.222h-7.665c-3.435 0-6.668 2.566-6.668 5.537 0 3.037 2.342 5.488 5.838 5.488.243 0 .479-.006.71-.021-.228.428-.39.911-.39 1.411 0 .842.459 1.527 1.042 2.087l-1.326.014c-4.257 0-7.533 2.67-7.533 5.44 0 2.729 3.591 4.436 7.846 4.436 4.851 0 7.533-2.714 7.533-5.441.001-2.19-.655-3.498-2.681-4.911zm-4.092-3.785c-1.975-.058-3.851-2.176-4.191-4.732-.342-2.556.982-4.512 2.958-4.454 1.973.058 3.85 2.108 4.191 4.664.339 2.557-.985 4.582-2.958 4.522zm-.774 12.931c-2.942 0-5.066-1.836-5.066-4.041 0-2.16 2.635-3.959 5.578-3.929.685.008 1.326.116 1.907.302 1.595 1.095 2.742 1.712 3.064 2.961.062.253.095.512.095.778-.001 2.207-1.441 3.929-5.578 3.929zm13.034-12.709v-2.938h-2.401v2.938h-2.982v2.367h2.982v2.942h2.401v-2.942h2.983v-2.367h-2.983z"/></svg>