<svg xmlns="http://www.w3.org/2000/svg" width="72.002" height="68.985" viewBox="0 0 72.002 68.985"><g fill="#43BB58"><path d="M38.611 47.996h-5.761v-13.504h-2.88v-4.654h2.88v-2.793c0-3.796 1.625-6.055 6.243-6.055h3.846v4.654h-2.402c-1.799 0-1.918.651-1.918 1.864l-.008 2.33h4.355l-.51 4.654h-3.846v13.504zM6.41 51.244l18.377-.384-4.495 6.31.929.604c4.439 2.889 9.559 4.416 14.804 4.416h.003c8.745 0 17.023-4.285 22.146-11.461 4.851-6.793 6.368-15.525 4.164-23.625l6.801-.119c2.134 9.676.119 19.733-5.583 27.715-6.376 8.932-16.671 14.264-27.539 14.264-6.606 0-13.042-1.947-18.609-5.633l-1.021-.698-4.533 6.353-5.444-17.742zm-3.531-9.036c-2.21-9.741-.212-19.873 5.535-27.925 6.376-8.931 16.671-14.263 27.54-14.263 6.605 0 13.041 1.948 18.61 5.633l1.02.695 4.533-6.348 5.441 17.737-18.375.387 4.494-6.307-.928-.604c-4.439-2.891-9.561-4.419-14.809-4.419-8.744 0-17.022 4.285-22.145 11.462-4.9 6.861-6.398 15.677-4.108 23.833l-6.808.119z"/></g></svg>