<svg xmlns="http://www.w3.org/2000/svg" width="72.002" height="68.985" viewBox="0 0 72.002 68.985"><path fill="#43BB58" d="M42.607 62.774c0-.438.119-.842.311-1.203-.191-.361-.311-.768-.311-1.203v-.936l-.802-2.936c-1.761 1.888-3.367 3.034-4.208 3.563l-1.609 1.014v-11.227h4.002l-.082-.301c-1.431-.325-2.59-1.344-3.107-2.674h-.813v-10.38h13.416l-.07 1.116c-.188 3.037-.713 5.91-1.561 8.535l-.234.729h-1.713l3.4 2.818 2.213-7.277c-.834-.791-1.33-1.895-1.33-3.098 0-2.385 1.969-4.326 4.391-4.326 1.322 0 2.495.59 3.301 1.503h3.67l-.115 1.155c-.297 2.953-1.1 5.854-2.389 8.619l-.125.268.99 3.145 3.239-2.743c.23-.548.448-1.101.647-1.663.012-.848.271-1.635.712-2.299.686-2.55 1.069-5.223 1.069-7.986 0-17.094-13.906-31-31-31s-31 13.906-31 31 13.906 31 31 31c2.807 0 5.52-.394 8.107-1.099v-2.114zm16.414-39.025c1.268 2.76 2.055 5.659 2.34 8.617l.109 1.152h-9.371l-.057-.992c-.164-2.914-.584-5.625-1.25-8.061l-.363-1.328h8.311l.281.612zm-13.842-13.544c4.145 1.787 7.822 4.644 10.635 8.263l1.316 1.696h-7.824l-.281-.615c-1.309-2.866-3.002-5.447-5.037-7.669l1.191-1.675zm-9.191-1.265l1.609 1.011c1.426.896 5.051 3.532 7.912 8.648l.875 1.563h-10.396v-11.222zm0 14.197h11.551l.234.729c.848 2.626 1.373 5.499 1.561 8.536l.07 1.116h-13.416v-10.381zm-22.694-4.67c2.758-3.549 6.369-6.374 10.443-8.17l1.201 1.668c-2.008 2.212-3.679 4.763-4.963 7.583l-.28.615h-7.72l1.319-1.696zm-5.548 13.899c.284-2.958 1.071-5.858 2.34-8.617l.281-.612h8.203l-.362 1.328c-.666 2.436-1.087 5.147-1.251 8.061l-.056.992h-9.266l.111-1.152zm2.395 13.9c-1.287-2.764-2.092-5.664-2.389-8.617l-.117-1.157h9.267l.056.991c.164 2.914.585 5.627 1.251 8.061l.362 1.328h-8.146l-.284-.606zm13.431 13.255c-3.969-1.78-7.493-4.538-10.194-7.975l-1.336-1.7h7.653l.28.615c1.25 2.742 2.868 5.232 4.81 7.4l-1.213 1.66zm9.441 1.549l-1.61-1.013c-1.426-.896-5.052-3.533-7.912-8.646l-.873-1.564h10.396v11.223zm0-14.198h-11.55l-.235-.729c-.848-2.625-1.373-5.498-1.562-8.535l-.069-1.116h13.416v10.38zm0-13.354h-13.416l.069-1.116c.188-3.038.714-5.91 1.562-8.536l.235-.729h11.55v10.381zm0-13.355h-10.396l.873-1.563c2.861-5.116 6.486-7.752 7.913-8.648l1.609-1.011v11.222zM63.775 62.676h-18.551c-.34 0-.618.27-.618.602v4.21h19.788v-4.21c0-.332-.279-.602-.619-.602zm4.328-19.169c-1.318 0-2.391 1.043-2.391 2.326 0 .574.223 1.094.578 1.499l-7.463 6.32-3.658-11.612c.992-.284 1.723-1.165 1.723-2.223 0-1.283-1.072-2.326-2.393-2.326s-2.392 1.043-2.392 2.326c0 1.046.714 1.92 1.69 2.212l-3.532 11.623-7.585-6.286c.373-.41.605-.942.605-1.533 0-1.283-1.071-2.326-2.391-2.326s-2.392 1.043-2.392 2.326c0 1.285 1.071 2.326 2.392 2.326.189 0 .373-.027.551-.068l3.159 11.577v1.203c0 .331.278.602.618.602h18.551c.34 0 .619-.271.619-.602v-1.203l3.074-11.603c.203.055.414.094.635.094 1.32 0 2.393-1.041 2.393-2.326.002-1.283-1.071-2.326-2.391-2.326z"/></svg>