<svg xmlns="http://www.w3.org/2000/svg" width="72.002" height="68.985" viewBox="0 0 72.002 68.985"><path fill="#ff3b58" d="M46.794 64.234h-3.723s-4.785 0-4.785-4.75v-2.375h13.725v-7.125h-47.225v-38.25h57.429v24.263h4.785v-26.639c0-1.306-1.076-2.375-2.393-2.375h-62.214c-1.316 0-2.393 1.07-2.393 2.375v45.375c0 1.305 1.077 2.375 2.393 2.375h26.322v2.375c0 4.75-4.674 4.75-4.674 4.75h-3.835c-.465 0-.849.38-.849.842v3.908h28.285v-3.908c0-.461-.383-.841-.848-.841zM68.79 37.985h-11.573c-1.769 0-3.215 1.453-3.215 3.229v24.541c0 1.776 1.446 3.229 3.215 3.229h11.573c1.768 0 3.213-1.453 3.213-3.229v-24.541c-.001-1.776-1.446-3.229-3.213-3.229zm-5.788 30.058c-1.258 0-2.277-1.024-2.277-2.288 0-1.265 1.02-2.288 2.277-2.288s2.279 1.023 2.279 2.288c.001 1.264-1.021 2.288-2.279 2.288zm-6.428-5.517v-19.375h12.858v19.375h-12.858z"/></svg>