<svg xmlns="http://www.w3.org/2000/svg" width="32" height="32" viewBox="0 0 32 32"><path fill="#FF3B58" d="M16 0c-8.836 0-16 7.164-16 16s7.164 16 16 16 16-7.164 16-16-7.164-16-16-16zm-4.037 22.451h-2.813v-8.765h2.813v8.765zm-1.479-9.861h-.021c-1.018 0-1.678-.67-1.678-1.519 0-.866.68-1.522 1.718-1.522 1.037 0 1.676.655 1.696 1.52.001.849-.658 1.521-1.715 1.521zm12.73 9.861h-3.188v-4.535c0-1.188-.499-1.998-1.596-1.998-.839 0-1.306.547-1.522 1.074-.081.188-.069.452-.069.717v4.742h-3.159s.041-8.034 0-8.765h3.159v1.375c.187-.601 1.196-1.46 2.809-1.46 1.998 0 3.567 1.262 3.567 3.976v4.874z"/></svg>