<?xml version="1.0" encoding="utf-8"?>
<!-- Generator: Adobe Illustrator 16.0.0, SVG Export Plug-In . SVG Version: 6.00 Build 0)  -->
<!DOCTYPE svg PUBLIC "-//W3C//DTD SVG 1.1//EN" "http://www.w3.org/Graphics/SVG/1.1/DTD/svg11.dtd">
<svg version="1.1" id="Layer_1" xmlns="http://www.w3.org/2000/svg" xmlns:xlink="http://www.w3.org/1999/xlink" x="0px" y="0px"
	 width="24px" height="28px" viewBox="0 0 24 28" enable-background="new 0 0 24 28" xml:space="preserve">
<g id="earphone_1_">
	<path fill="#ff3b58" d="M0.18,5.671l3.3-3.301c0.4-0.399,1.2-0.3,1.5,0.2l2.8,3.898c0.4,0.5,0.301,1.301-0.199,1.7l-2.4,2.4
		c1.2,1.6,2.6,3.398,4.5,5.3c1.9,1.9,3.7,3.4,5.299,4.5l2.4-2.4c0.398-0.398,1.2-0.5,1.7-0.1l3.8,2.7c0.5,0.398,0.6,1.1,0.2,1.6
		l-3.302,3.3c0,0-5.6,0.5-13-6.8C-0.32,11.271,0.18,5.671,0.18,5.671z"/>
</g>
</svg>
