<?xml version="1.0" encoding="utf-8"?>
<!-- Generator: Adobe Illustrator 16.0.0, SVG Export Plug-In . SVG Version: 6.00 Build 0)  -->
<!DOCTYPE svg PUBLIC "-//W3C//DTD SVG 1.1//EN" "http://www.w3.org/Graphics/SVG/1.1/DTD/svg11.dtd">
<svg version="1.1" xmlns="http://www.w3.org/2000/svg" xmlns:xlink="http://www.w3.org/1999/xlink" x="0px" y="0px" width="32px"
	 height="32px" viewBox="0 0 32 32" enable-background="new 0 0 32 32" xml:space="preserve">
<path fill="#FF3B58" d="M16,0C7.164,0,0,7.164,0,16s7.164,16,16,16s16-7.164,16-16S24.836,0,16,0z M21.075,19.438
	c-1.254,1.043-4.157,1.748-5.743,0.58c-0.219-0.16-0.32-0.68-0.594-0.483c-0.442,1.857-1.037,4.025-1.907,5.465H11.59
	c0.01-0.009,0.02-0.016,0.029-0.024c-0.174-0.749-0.068-2.212,0.049-2.926c0.304-1.834,1.492-4.345,1.485-6.188
	c-0.003-0.776-0.437-1.629-0.297-2.516c0.258-1.631,2.637-3.137,3.466-1.257c0.956,2.169-2.028,4.792-0.396,6.286
	c0.339,0.312,1.196,0.521,1.881,0.387c3.436-0.672,3.915-7.656,1.089-9.284c-4.057-2.337-8.627,1.276-8.219,5.029
	c0.155,1.414,1.69,2.228,0.396,3.481c-1.894-0.729-2.59-2.054-2.574-4.159c0.032-4.471,4.308-7.282,9.01-6.769
	c3.058,0.334,5.644,2.716,5.941,5.415C23.718,14.889,22.883,17.936,21.075,19.438z"/>
</svg>
