<?xml version="1.0" encoding="utf-8"?>
<!-- Generator: Adobe Illustrator 16.0.0, SVG Export Plug-In . SVG Version: 6.00 Build 0)  -->
<!DOCTYPE svg PUBLIC "-//W3C//DTD SVG 1.1//EN" "http://www.w3.org/Graphics/SVG/1.1/DTD/svg11.dtd">
<svg version="1.1" xmlns="http://www.w3.org/2000/svg" xmlns:xlink="http://www.w3.org/1999/xlink" x="0px" y="0px" width="32px"
	 height="32px" viewBox="0 0 32 32" enable-background="new 0 0 32 32" xml:space="preserve">
<path fill="#FF3B58" d="M16,32c8.836,0,16-7.164,16-16c0-8.836-7.164-16-16-16S0,7.164,0,16C0,24.836,7.164,32,16,32z
	 M12.795,17.106c-1.381,0.163-2.148-0.635-2.461-1.314c0.322-0.367,0.679-0.541,1.369-0.588c-1.511-0.389-2.068-1.193-2.239-2.169
	c0.419-0.109,0.943-0.204,1.228-0.161c-1.321-0.753-1.78-1.886-1.707-2.737c2.364,0.956,3.87,1.723,5.131,2.457
	c0.448,0.262,0.95,0.731,1.515,1.328c0.719-2.07,1.608-4.203,3.131-5.262c-0.025,0.239-0.145,0.462-0.3,0.646
	c0.432-0.427,0.992-0.722,1.562-0.806c-0.064,0.466-0.681,0.728-1.053,0.88c0.281-0.095,1.779-0.823,1.942-0.408
	c0.194,0.468-1.033,0.688-1.241,0.77c-0.156,0.057-0.312,0.119-0.464,0.187c1.897-0.206,3.711,1.5,4.238,3.614
	c0.037,0.154,0.076,0.323,0.111,0.5c0.693,0.283,1.951-0.015,2.355-0.284c-0.293,0.754-1.055,1.31-2.177,1.411
	c0.542,0.246,1.562,0.381,2.265,0.25c-0.445,0.521-1.163,0.991-2.387,0.98C21.983,23.595,11.035,26.648,6,19.178
	c1.93,2.004,5.289,2.181,7.419-0.216C12.169,19.16,11.26,17.826,12.795,17.106z"/>
</svg>
