<svg xmlns="http://www.w3.org/2000/svg" width="40" height="40" viewBox="0 0 40 40"><path fill="#fff" d="M33.315 11.12c-.985.476-2.033.782-3.143.925 1.131-.728 1.999-1.872 2.41-3.244-1.059.67-2.229 1.148-3.477 1.428-.993-1.146-2.418-1.861-3.986-1.861-3.017 0-5.463 2.627-5.463 5.875 0 .456.048.907.139 1.331-4.532-.233-8.564-2.581-11.26-6.127-.468.864-.737 1.871-.737 2.951 0 2.033.963 3.842 2.432 4.88-.897-.037-1.74-.286-2.476-.73v.08c0 2.84 1.883 5.211 4.382 5.758-.458.135-.941.195-1.443.195-.351 0-.684-.025-1.021-.105.693 2.342 2.712 4.043 5.102 4.078-1.87 1.582-4.225 2.514-6.785 2.514-.442 0-.878-.027-1.304-.082 2.417 1.674 5.283 2.648 8.375 2.648 10.048 0 15.546-8.951 15.546-16.712 0-.248-.006-.499-.018-.751 1.066-.84 1.995-1.877 2.727-3.051z"/></svg>