<?xml version="1.0" encoding="utf-8"?>
<!-- Generator: Adobe Illustrator 16.0.0, SVG Export Plug-In . SVG Version: 6.00 Build 0)  -->
<!DOCTYPE svg PUBLIC "-//W3C//DTD SVG 1.1//EN" "http://www.w3.org/Graphics/SVG/1.1/DTD/svg11.dtd">
<svg version="1.1" id="Layer_1" xmlns="http://www.w3.org/2000/svg" xmlns:xlink="http://www.w3.org/1999/xlink" x="0px" y="0px"
	 width="40px" height="40px" viewBox="0 0 40 40" enable-background="new 0 0 40 40" xml:space="preserve">
<g display="none">
	<path display="inline" fill="#FFFFFF" d="M26.271,15.334h-4.195v-2.749c0-1.032,0.684-1.272,1.166-1.272s2.962,0,2.962,0V6.775
		l-4.079-0.016c-4.528,0-5.558,3.384-5.558,5.55v3.025h-2.619v4.675h2.619c0,6,0,13.231,0,13.231h5.509c0,0,0-7.303,0-13.231h3.715
		L26.271,15.334z"/>
</g>
<g display="none">
	<path display="inline" fill="#FFFFFF" d="M33.315,11.12c-0.985,0.476-2.033,0.782-3.143,0.925c1.131-0.728,1.999-1.872,2.41-3.244
		c-1.059,0.67-2.229,1.148-3.477,1.428c-0.993-1.146-2.418-1.861-3.986-1.861c-3.017,0-5.463,2.627-5.463,5.875
		c0,0.456,0.048,0.907,0.139,1.331c-4.532-0.233-8.564-2.581-11.26-6.127c-0.468,0.864-0.737,1.871-0.737,2.951
		c0,2.033,0.963,3.842,2.432,4.88c-0.897-0.037-1.74-0.286-2.476-0.73c0,0.024,0,0.055,0,0.08c0,2.84,1.883,5.211,4.382,5.758
		c-0.458,0.135-0.941,0.195-1.443,0.195c-0.351,0-0.684-0.025-1.021-0.105c0.693,2.342,2.712,4.043,5.102,4.078
		c-1.87,1.582-4.225,2.514-6.785,2.514c-0.442,0-0.878-0.027-1.304-0.082c2.417,1.674,5.283,2.648,8.375,2.648
		c10.048,0,15.546-8.951,15.546-16.712c0-0.248-0.006-0.499-0.018-0.751C31.654,13.331,32.583,12.294,33.315,11.12z"/>
</g>
<g display="none">
	<path display="inline" fill-rule="evenodd" clip-rule="evenodd" fill="#FFFFFF" d="M29.798,33.997H10.202
		c-2.319,0-4.199-1.88-4.199-4.199V10.202c0-2.319,1.88-4.199,4.199-4.199h19.596c2.319,0,4.199,1.88,4.199,4.199v19.596
		C33.997,32.117,32.117,33.997,29.798,33.997z M19.956,16.413c-2.464,0-4.461,1.998-4.461,4.462s1.998,4.462,4.461,4.462
		s4.462-1.998,4.462-4.462S22.42,16.413,19.956,16.413z M29.754,12.958h-0.043v-2.844h-3.588v0.044h-0.48v2.8h-0.088v1.443h4.199
		V12.958z M31.197,18.601h-3.862c0.214,0.703,0.363,1.435,0.363,2.209c0,4.215-3.417,7.633-7.633,7.633
		c-4.215,0-7.633-3.418-7.633-7.633c0-0.774,0.149-1.506,0.363-2.209H8.802v9.798c0,1.546,1.253,2.8,2.799,2.8h16.797
		c1.546,0,2.799-1.254,2.799-2.8V18.601z"/>
</g>
<g>
	<path fill="#FFFFFF" d="M29.5,32.474c-1.293,0.563-2.465,0.958-3.51,1.187C24.939,33.887,23.807,34,22.588,34
		c-1.383,0-2.199-0.161-3.262-0.483c-1.063-0.323-2.014-0.736-2.717-1.381c-1.359-1.247-1.359-2.803-1.359-4.843V16.889H10.5v-3.38
		c1.19-0.356,2.568-0.869,3.413-1.534c0.852-0.67,1.531-1.468,2.042-2.405C16.468,8.636,16.821,7.445,17.014,6h4.57v6.223h6.332
		v4.666h-6.332v7.765c0,1.624-0.155,2.561,0.03,3.021c0.185,0.458,0.578,0.934,1.085,1.209c0.67,0.37,1.401,0.556,2.264,0.556
		c1.531,0,3.023-0.46,4.537-1.381V32.474z"/>
</g>
</svg>
