<?xml version="1.0" encoding="utf-8"?>
<!-- Generator: Adobe Illustrator 16.0.0, SVG Export Plug-In . SVG Version: 6.00 Build 0)  -->
<!DOCTYPE svg PUBLIC "-//W3C//DTD SVG 1.1//EN" "http://www.w3.org/Graphics/SVG/1.1/DTD/svg11.dtd">
<svg version="1.1" id="Layer_1" xmlns="http://www.w3.org/2000/svg" xmlns:xlink="http://www.w3.org/1999/xlink" x="0px" y="0px"
	 width="40px" height="40px" viewBox="0 0 40 40" enable-background="new 0 0 40 40" xml:space="preserve">
<g display="none">
	<path display="inline" fill="#FFFFFF" d="M26.271,15.334h-4.195v-2.749c0-1.032,0.684-1.272,1.166-1.272s2.962,0,2.962,0V6.775
		l-4.079-0.016c-4.528,0-5.558,3.384-5.558,5.55v3.025h-2.619v4.675h2.619c0,6,0,13.231,0,13.231h5.509c0,0,0-7.303,0-13.231h3.715
		L26.271,15.334z"/>
</g>
<g display="none">
	<path display="inline" fill="#FFFFFF" d="M33.315,11.12c-0.985,0.476-2.033,0.782-3.143,0.925c1.131-0.728,1.999-1.872,2.41-3.244
		c-1.059,0.67-2.229,1.148-3.477,1.428c-0.993-1.146-2.418-1.861-3.986-1.861c-3.017,0-5.463,2.627-5.463,5.875
		c0,0.456,0.048,0.907,0.139,1.331c-4.532-0.233-8.564-2.581-11.26-6.127c-0.468,0.864-0.737,1.871-0.737,2.951
		c0,2.033,0.963,3.842,2.432,4.88c-0.897-0.037-1.74-0.286-2.476-0.73c0,0.024,0,0.055,0,0.08c0,2.84,1.883,5.211,4.382,5.758
		c-0.458,0.135-0.941,0.195-1.443,0.195c-0.351,0-0.684-0.025-1.021-0.105c0.693,2.342,2.712,4.043,5.102,4.078
		c-1.87,1.582-4.225,2.514-6.785,2.514c-0.442,0-0.878-0.027-1.304-0.082c2.417,1.674,5.283,2.648,8.375,2.648
		c10.048,0,15.546-8.951,15.546-16.712c0-0.248-0.006-0.499-0.018-0.751C31.654,13.331,32.583,12.294,33.315,11.12z"/>
</g>
<g display="none">
	<path display="inline" fill-rule="evenodd" clip-rule="evenodd" fill="#FFFFFF" d="M29.798,33.997H10.202
		c-2.319,0-4.199-1.88-4.199-4.199V10.202c0-2.319,1.88-4.199,4.199-4.199h19.596c2.319,0,4.199,1.88,4.199,4.199v19.596
		C33.997,32.117,32.117,33.997,29.798,33.997z M19.956,16.413c-2.464,0-4.461,1.998-4.461,4.462s1.998,4.462,4.461,4.462
		s4.462-1.998,4.462-4.462S22.42,16.413,19.956,16.413z M29.754,12.958h-0.043v-2.844h-3.588v0.044h-0.48v2.8h-0.088v1.443h4.199
		V12.958z M31.197,18.601h-3.862c0.214,0.703,0.363,1.435,0.363,2.209c0,4.215-3.417,7.633-7.633,7.633
		c-4.215,0-7.633-3.418-7.633-7.633c0-0.774,0.149-1.506,0.363-2.209H8.802v9.798c0,1.546,1.253,2.8,2.799,2.8h16.797
		c1.546,0,2.799-1.254,2.799-2.8V18.601z"/>
</g>
<g display="none">
	<path display="inline" fill="#FFFFFF" d="M29.5,32.474c-1.293,0.563-2.465,0.958-3.51,1.187C24.939,33.887,23.807,34,22.588,34
		c-1.383,0-2.199-0.161-3.262-0.483c-1.063-0.323-2.014-0.736-2.717-1.381c-1.359-1.247-1.359-2.803-1.359-4.843V16.889H10.5v-3.38
		c1.19-0.356,2.568-0.869,3.413-1.534c0.852-0.67,1.531-1.468,2.042-2.405C16.468,8.636,16.821,7.445,17.014,6h4.57v6.223h6.332
		v4.666h-6.332v7.765c0,1.624-0.155,2.561,0.03,3.021c0.185,0.458,0.578,0.934,1.085,1.209c0.67,0.37,1.401,0.556,2.264,0.556
		c1.531,0,3.023-0.46,4.537-1.381V32.474z"/>
</g>
<g>
	<g id="g1382" transform="matrix(1.25,0,0,-1.25,438.53875,696.92845)">
		<path id="path1384" fill="#FFFFFF" d="M-343.698,541.997c-0.398-0.638-0.566-2.647-0.428-3.982
			c0.049-0.44,0.128-0.807,0.244-1.026c0.159-0.303,0.427-0.484,0.732-0.495c0.196-0.01,0.318,0.023,3.998,1.206
			c0,0,1.636,0.523,1.643,0.526c0.408,0.104,0.682,0.479,0.709,0.958c0.027,0.491-0.227,0.924-0.645,1.081
			c0,0-1.154,0.47-1.156,0.47c-3.955,1.631-4.133,1.695-4.332,1.697C-343.238,542.446-343.509,542.292-343.698,541.997"/>
	</g>
	<g id="g1386" transform="matrix(1.25,0,0,-1.25,448.53875,710.66595)">
		<path id="path1388" fill="#FFFFFF" d="M-342.85,540.832c0.064,0.186,0.072,0.313,0.083,4.18c0,0,0.009,1.709,0.01,1.726
			c0.027,0.419-0.245,0.801-0.688,0.971c-0.456,0.176-0.948,0.067-1.225-0.277c0,0-0.808-0.958-0.81-0.958
			c-2.771-3.255-2.887-3.405-2.954-3.598c-0.041-0.113-0.057-0.235-0.044-0.355c0.016-0.173,0.095-0.343,0.225-0.502
			c0.643-0.762,3.724-1.897,4.709-1.728C-343.204,540.352-342.955,540.544-342.85,540.832"/>
	</g>
	<g id="g1390" transform="matrix(1.25,0,0,-1.25,455.60375,709.1447)">
		<path id="path1392" fill="#FFFFFF" d="M-342.25,540.961c0.929,0.37,2.955,2.948,3.098,3.941c0.05,0.345-0.059,0.642-0.296,0.832
			c-0.156,0.117-0.275,0.162-3.953,1.371c0,0-1.613,0.533-1.634,0.543c-0.391,0.152-0.837,0.011-1.137-0.359
			c-0.312-0.38-0.358-0.88-0.109-1.259l0.649-1.058c2.184-3.545,2.351-3.797,2.508-3.92
			C-342.882,540.863-342.572,540.831-342.25,540.961"/>
	</g>
	<g id="g1394" transform="matrix(1.25,0,0,-1.25,453.455,698.8272)">
		<path id="path1396" fill="#FFFFFF" d="M-342.433,541.836c4.18,1.013,4.342,1.066,4.507,1.175c0.253,0.17,0.38,0.456,0.359,0.803
			c0,0.011,0.002,0.023,0,0.036c-0.107,1.027-1.905,3.696-2.791,4.13c-0.315,0.15-0.629,0.14-0.89-0.034
			c-0.161-0.105-0.28-0.264-2.518-3.326c0,0-1.011-1.377-1.023-1.39c-0.266-0.324-0.271-0.789-0.01-1.186
			c0.27-0.413,0.726-0.614,1.144-0.498c0,0-0.016-0.03-0.021-0.036C-343.471,541.587-343.103,541.677-342.433,541.836"/>
	</g>
	<g id="g1398" transform="matrix(1.25,0,0,-1.25,448.7125,694.92595)">
		<path id="path1400" fill="#FFFFFF" d="M-342.835,542.167c-0.072,1.657-0.571,9.034-0.63,9.376
			c-0.084,0.31-0.327,0.531-0.673,0.618c-1.067,0.264-5.146-0.878-5.902-1.658c-0.243-0.253-0.333-0.565-0.26-0.841
			c0.12-0.245,5.173-8.196,5.173-8.196c0.746-1.211,1.356-1.023,1.556-0.96C-343.372,540.567-342.766,540.755-342.835,542.167"/>
	</g>
</g>
</svg>
