<svg xmlns="http://www.w3.org/2000/svg" width="40" height="40" viewBox="0 0 40 40"><path fill="#fff" d="M12.277 32.624h-5.381v-16.967h5.381v16.967zm-2.828-19.089h-.038c-1.946 0-3.21-1.299-3.21-2.94 0-1.676 1.301-2.946 3.285-2.946 1.984 0 3.206 1.266 3.244 2.94 0 1.644-1.26 2.946-3.281 2.946zm24.35 19.089h-6.1v-8.779c0-2.3-.953-3.867-3.053-3.867-1.605 0-2.496 1.058-2.914 2.077-.152.366-.131.876-.131 1.389v9.181h-6.043s.08-15.553 0-16.967h6.043v2.663c.357-1.164 2.289-2.827 5.371-2.827 3.822 0 6.826 2.441 6.826 7.698v9.432z"/></svg>